<?xml version="1.0" encoding="UTF-8"?> <!-- Generator: Adobe Illustrator 24.0.0, SVG Export Plug-In . SVG Version: 6.00 Build 0) --> <svg xmlns="http://www.w3.org/2000/svg" xmlns:xlink="http://www.w3.org/1999/xlink" version="1.1" id="Layer_1" x="0px" y="0px" viewBox="0 0 100 30.041" style="enable-background:new 0 0 100 30.041;" xml:space="preserve"> <style type="text/css"> .st0{fill:#FFFFFF;} </style> <g> <path class="st0" d="M4.549,22.831V0h4.978v23.689c0,4.635-3.09,6.351-7.639,6.351H0v-4.463h1.802 C3.433,25.578,4.549,24.977,4.549,22.831z"></path> <path class="st0" d="M35.409,23.346h-5.493l-1.073,6.695h-4.807L29.615,0h6.266l5.665,30.041h-5.064L35.409,23.346z M34.765,19.226 L32.662,5.879l-2.103,13.347H34.765z"></path> <path class="st0" d="M64.765,30.041h-5.493L53.607,0h5.064l3.476,22.273L65.623,0h4.806L64.765,30.041z"></path> <path class="st0" d="M93.863,23.346H88.37l-1.073,6.695H82.49L88.07,0h6.265L100,30.041h-5.064L93.863,23.346z M93.219,19.226 L91.117,5.879l-2.103,13.347H93.219z"></path> </g> </svg> 