<?xml version="1.0" encoding="iso-8859-1"?>
<!-- Generator: Adobe Illustrator 18.0.0, SVG Export Plug-In . SVG Version: 6.00 Build 0)  -->
<!DOCTYPE svg PUBLIC "-//W3C//DTD SVG 1.1//EN" "http://www.w3.org/Graphics/SVG/1.1/DTD/svg11.dtd">
<svg xmlns="http://www.w3.org/2000/svg" xmlns:xlink="http://www.w3.org/1999/xlink" version="1.1" id="Capa_1" x="0px" y="0px" viewBox="0 0 449.228 449.228" style="enable-background:new 0 0 449.228 449.228;" xml:space="preserve" width="20px" height="20px">
<path d="M401.605,160.635c0.006-10.976-5.677-20.81-15.188-26.308L155.537,1.005c-2.322-1.34-5.181-1.34-7.501,0  c-2.32,1.34-3.75,3.816-3.75,6.495v14.879l-12.885-7.439c-2.32-1.34-5.18-1.34-7.5,0c-2.32,1.34-3.75,3.816-3.75,6.495v14.848  l-12.86-7.424c-2.322-1.34-5.181-1.34-7.503,0.002c-2.32,1.341-3.749,3.819-3.747,6.5l0.011,14.85l-12.872-7.431  c-2.317-1.338-5.172-1.34-7.489-0.006c-2.319,1.334-3.752,3.802-3.761,6.477v50.562l-5.739,3.213  c-11.442,6.598-18.553,18.901-18.555,32.108l-0.014,49.377c-0.003,13.206,7.1,25.511,18.534,32.115l5.592,3.229v79.718  c0,2.673,1.423,5.145,3.735,6.487L302.88,438.037c12.668,7.321,27.11,11.191,41.765,11.191c11.708,0,23.063-2.395,33.756-7.12  c2.747-1.218,5.441-2.587,7.998-4.065c1.756-1.011,3.412-2.193,4.92-3.511c5.601-4.891,10.053-11.631,10.071-19.14  C401.422,402.381,401.596,176.383,401.605,160.635z M159.286,20.491l219.628,126.824c4.815,2.784,7.69,7.763,7.69,13.319  c0,0.637-0.038,1.283-0.108,1.886c-0.587,4.826-3.354,8.997-7.59,11.442c-0.866,0.5-1.748,0.972-2.635,1.433v-14.75  c0-2.68-1.43-5.155-3.75-6.495L159.286,31.039V20.491z M135.152,34.425l226.12,130.551v16.117c-2.996,0.752-6.038,1.291-9.11,1.629  v-8.177c0-2.68-1.43-5.156-3.75-6.496L135.152,44.942V34.425z M111.051,48.35l226.11,130.525v3.845  c-9.405-1.04-18.542-4.014-26.778-8.768L111.059,58.875L111.051,48.35z M62.623,184.514l0.014-49.377  c0.001-7.089,3.442-13.742,9.112-17.861v14.704c0,2.65,1.398,5.104,3.68,6.454l44.749,26.488v66.099L83,209.031l-9.341-5.395  C66.851,199.704,62.622,192.377,62.623,184.514z M386.475,412.162c-0.012,1.792-0.279,3.586-0.934,5.253  c-0.877,2.233-2.271,4.231-4.092,5.821c-0.773,0.676-1.627,1.285-2.548,1.815c-2.104,1.217-4.318,2.342-6.571,3.341  c-8.765,3.873-18.079,5.837-27.686,5.837c-12.022,0-23.869-3.174-34.247-9.171L86.749,295.254v-66.579l37.11,21.95  c1.177,0.696,2.497,1.044,3.818,1.044c1.772,0,3.546-0.628,4.976-1.886c1.665-1.466,2.524-3.646,2.524-5.865l0-83.273  c0-2.65-1.398-5.104-3.68-6.454l-44.749-26.488V62.24l216.134,124.703c12.69,7.327,27.14,11.2,41.783,11.2  c9.041,0,17.956-1.456,26.479-4.321c5.276-1.758,10.41-4.069,15.259-6.868c0.019-0.011,0.037-0.024,0.057-0.035  C386.527,269.712,386.591,394.5,386.475,412.162z" fill="#FFFFFF"/>
<g>
</g>
<g>
</g>
<g>
</g>
<g>
</g>
<g>
</g>
<g>
</g>
<g>
</g>
<g>
</g>
<g>
</g>
<g>
</g>
<g>
</g>
<g>
</g>
<g>
</g>
<g>
</g>
<g>
</g>
</svg>
