<?xml version="1.0" encoding="iso-8859-1"?>
<!-- Generator: Adobe Illustrator 19.0.0, SVG Export Plug-In . SVG Version: 6.00 Build 0)  -->
<svg xmlns="http://www.w3.org/2000/svg" xmlns:xlink="http://www.w3.org/1999/xlink" version="1.1" id="Layer_1" x="0px" y="0px" viewBox="0 0 194.576 194.576" style="enable-background:new 0 0 194.576 194.576;" xml:space="preserve" width="20px" height="20px">
<g>
	<g>
		<g>
			<path d="M97.288,0C43.642,0,0,43.642,0,97.288c0,53.646,43.642,97.288,97.288,97.288s97.288-43.642,97.288-97.288     C194.576,43.642,150.934,0,97.288,0z M46.284,171.801C22.552,155.505,6.949,128.189,6.949,97.288     c0-49.813,40.526-90.339,90.339-90.339c21.909,0,42.017,7.845,57.675,20.867l-4.86,4.994     c-14.392-11.811-32.789-18.912-52.816-18.912c-45.98,0-83.39,37.409-83.39,83.39c0,28.954,14.841,54.499,37.308,69.455     L46.284,171.801z M173.729,97.288c0,42.15-34.291,76.441-76.441,76.441c-42.15,0-76.441-34.291-76.441-76.441     c0-42.15,34.291-76.441,76.441-76.441C139.438,20.847,173.729,55.138,173.729,97.288z M97.288,187.627     c-16.373,0-31.727-4.4-44.984-12.047l4.999-5.137c11.879,6.519,25.505,10.235,39.985,10.235c45.98,0,83.39-37.409,83.39-83.39     c0-23.458-9.751-44.67-25.395-59.836l4.843-4.977c16.942,16.43,27.501,39.406,27.501,64.813     C187.627,147.101,147.101,187.627,97.288,187.627z" fill="#FFFFFF"/>
			<path d="M93.815,34.746v10.501C80.078,46.966,69.41,58.691,69.41,72.884c0,15.373,12.505,27.878,27.878,27.878     c11.54,0,20.929,9.389,20.929,20.929c0,11.54-9.389,20.929-20.929,20.929c-11.54,0-20.929-9.389-20.929-20.929     c0-1.919-1.556-3.475-3.475-3.475c-1.919,0-3.475,1.556-3.475,3.475c0,14.194,10.668,25.919,24.403,27.638v10.501h6.951v-10.5     c13.735-1.719,24.403-13.445,24.403-27.638c0-15.373-12.505-27.878-27.878-27.878c-11.54,0-20.929-9.389-20.929-20.929     c0-11.54,9.389-20.929,20.929-20.929c11.54,0,20.929,9.389,20.929,20.929c0,1.919,1.556,3.475,3.475,3.475     s3.475-1.556,3.475-3.475c0-14.194-10.668-25.919-24.403-27.638V34.746H93.815z" fill="#FFFFFF"/>
		</g>
	</g>
</g>
<g>
</g>
<g>
</g>
<g>
</g>
<g>
</g>
<g>
</g>
<g>
</g>
<g>
</g>
<g>
</g>
<g>
</g>
<g>
</g>
<g>
</g>
<g>
</g>
<g>
</g>
<g>
</g>
<g>
</g>
</svg>
