<?xml version="1.0" encoding="iso-8859-1"?>
<!-- Generator: Adobe Illustrator 19.0.0, SVG Export Plug-In . SVG Version: 6.00 Build 0)  -->
<svg xmlns="http://www.w3.org/2000/svg" xmlns:xlink="http://www.w3.org/1999/xlink" version="1.1" id="Capa_1" x="0px" y="0px" viewBox="0 0 512 512" style="enable-background:new 0 0 512 512;" xml:space="preserve" width="20px" height="20px">
<g>
	<g>
		<g>
			<path d="M230.792,247.646l-6.729,60.51c-0.333,3.01,0.625,6.031,2.646,8.292c2.042,2.26,4.917,3.552,7.958,3.552h42.667     c3.042,0,5.917-1.292,7.958-3.552c2.021-2.26,2.979-5.281,2.646-8.292l-6.729-60.51c10.917-7.948,17.458-20.521,17.458-34.313     c0-23.531-19.146-42.667-42.667-42.667s-42.667,19.135-42.667,42.667C213.333,227.125,219.875,239.698,230.792,247.646z" fill="#333333"/>
			<path d="M245.333,85.333h21.333c5.896,0,10.667-4.771,10.667-10.667c0-5.896-4.771-10.667-10.667-10.667h-21.333     c-5.896,0-10.667,4.771-10.667,10.667C234.667,80.563,239.438,85.333,245.333,85.333z" fill="#333333"/>
			<path d="M384,0H128c-23.531,0-42.667,19.135-42.667,42.667v426.667C85.333,492.865,104.469,512,128,512h256     c23.531,0,42.667-19.135,42.667-42.667V42.667C426.667,19.135,407.531,0,384,0z M288,469.333h-64     c-5.896,0-10.667-4.771-10.667-10.667S218.104,448,224,448h64c5.896,0,10.667,4.771,10.667,10.667S293.896,469.333,288,469.333z      M384,405.333H128V42.667h256V405.333z" fill="#333333"/>
			<circle cx="352" cy="74.667" r="10.667" fill="#333333"/>
		</g>
	</g>
</g>
<g>
</g>
<g>
</g>
<g>
</g>
<g>
</g>
<g>
</g>
<g>
</g>
<g>
</g>
<g>
</g>
<g>
</g>
<g>
</g>
<g>
</g>
<g>
</g>
<g>
</g>
<g>
</g>
<g>
</g>
</svg>
