<?xml version="1.0" encoding="iso-8859-1"?>
<!-- Generator: Adobe Illustrator 19.0.0, SVG Export Plug-In . SVG Version: 6.00 Build 0)  -->
<svg xmlns="http://www.w3.org/2000/svg" xmlns:xlink="http://www.w3.org/1999/xlink" version="1.1" id="Layer_1" x="0px" y="0px" viewBox="0 0 512 512" style="enable-background:new 0 0 512 512;" xml:space="preserve" width="20px" height="20px">
<g>
	<g>
		<path d="M390.598,208.893h-41.893v-54.559c0-4.146-3.361-7.508-7.508-7.508s-7.508,3.361-7.508,7.508v54.56h-20.243V90.815    c0-31.676-25.77-57.446-57.446-57.446s-57.446,25.77-57.446,57.446v118.08h-20.243V92.705c0-42.837,34.851-77.688,77.688-77.688    s77.688,34.851,77.688,77.688v11.575c0,4.146,3.361,7.508,7.508,7.508s7.508-3.361,7.508-7.508V92.705    C348.705,41.587,307.118,0,256,0s-92.705,41.587-92.705,92.705v116.19h-41.893c-17.993,0-32.63,14.638-32.63,32.63v180.102    c0,4.146,3.361,7.508,7.508,7.508c4.147,0,7.508-3.361,7.508-7.508V241.525c0-9.712,7.901-17.614,17.614-17.614h49.402h35.259    h99.874h35.259h49.401c9.712,0,17.614,7.901,17.614,17.614V479.37c0,9.712-7.901,17.614-17.614,17.614H121.402    c-9.712,0-17.614-7.901-17.614-17.614v-3.685c0-4.146-3.361-7.508-7.508-7.508c-4.147,0-7.508,3.361-7.508,7.508v3.685    c0,17.993,14.638,32.63,32.63,32.63h269.196c17.993,0,32.63-14.638,32.63-32.63V241.525    C423.228,223.532,408.591,208.893,390.598,208.893z M298.429,208.895h-84.858V90.815h-0.001c0-23.396,19.034-42.429,42.429-42.429    s42.429,19.034,42.429,42.429V208.895z" fill="#cccccc"/>
	</g>
</g>
<g>
	<g>
		<path d="M321.547,310.976c-2.966-2.898-7.719-2.844-10.617,0.122l-79.141,80.979l-30.108-39.619    c-2.509-3.302-7.219-3.943-10.52-1.436c-3.302,2.509-3.945,7.219-1.436,10.52l35.373,46.548c1.321,1.739,3.333,2.816,5.512,2.951    c0.156,0.01,0.311,0.015,0.466,0.015c2.014,0,3.952-0.811,5.369-2.261l85.225-87.202    C324.567,318.628,324.513,313.874,321.547,310.976z" fill="#cccccc"/>
	</g>
</g>
<g>
</g>
<g>
</g>
<g>
</g>
<g>
</g>
<g>
</g>
<g>
</g>
<g>
</g>
<g>
</g>
<g>
</g>
<g>
</g>
<g>
</g>
<g>
</g>
<g>
</g>
<g>
</g>
<g>
</g>
</svg>
