<?xml version="1.0" encoding="iso-8859-1"?>
<!-- Generator: Adobe Illustrator 19.0.0, SVG Export Plug-In . SVG Version: 6.00 Build 0)  -->
<svg xmlns="http://www.w3.org/2000/svg" xmlns:xlink="http://www.w3.org/1999/xlink" version="1.1" id="Layer_1" x="0px" y="0px" viewBox="0 0 512 512" style="enable-background:new 0 0 512 512;" xml:space="preserve" width="20px" height="20px">
<g>
	<g>
		<path d="M432.608,302.951v-32.152c0-10.108-7.696-18.451-17.536-19.483v-10.779c0-18.058-14.691-32.749-32.75-32.749h-42.046    V93.043C340.276,41.739,298.537,0,247.233,0S154.19,41.739,154.19,93.043v35.237c0,4.162,3.373,7.536,7.536,7.536    c4.163,0,7.536-3.373,7.536-7.536V93.043c0-42.994,34.978-77.972,77.972-77.972c42.994,0,77.972,34.978,77.972,77.972v114.745    h-20.317V91.146c0-31.791-25.864-57.655-57.655-57.655c-31.791,0-57.655,25.864-57.655,57.655v116.642h-20.318v-23.912    c0-4.162-3.373-7.536-7.536-7.536c-4.163,0-7.536,3.373-7.536,7.536v23.912h-42.046c-18.059,0-32.75,14.691-32.75,32.749V479.25    c0,18.059,14.691,32.75,32.75,32.75h155.518c4.162,0,7.536-3.373,7.536-7.536c0-4.162-3.373-7.536-7.536-7.536H112.144    c-9.748,0-17.679-7.931-17.679-17.679V240.537c0-9.748,7.931-17.678,17.679-17.678h270.177c9.748,0,17.679,7.93,17.679,17.678    v10.669h-77.412c-10.803,0-19.592,8.79-19.592,19.592v32.152c0,10.803,8.79,19.592,19.592,19.592h77.413v3.014h-77.412    c-10.803,0-19.592,8.79-19.592,19.593v32.152c0,10.803,8.79,19.592,19.592,19.592h77.412v3.014h-77.412    c-10.803,0-19.592,8.79-19.592,19.592v32.152c0,10.803,8.79,19.592,19.592,19.592h77.412v8.005    c0,9.748-7.931,17.679-17.679,17.679H321.25c-4.162,0-7.536,3.373-7.536,7.536c0,4.162,3.373,7.536,7.536,7.536h61.072    c18.059,0,32.75-14.691,32.75-32.75v-8.115c9.84-1.031,17.536-9.374,17.536-19.483v-32.152c0-10.108-7.696-18.451-17.536-19.483    v-3.234c9.84-1.031,17.536-9.374,17.536-19.483V345.15c0-10.108-7.696-18.451-17.536-19.483v-3.234    C424.912,321.402,432.608,313.059,432.608,302.951z M289.816,207.788h-85.168V91.146c0-23.481,19.103-42.584,42.584-42.584    s42.584,19.103,42.584,42.584V207.788z M417.537,419.501v32.152c0,2.451-2.07,4.521-4.521,4.521h-90.427    c-2.451,0-4.521-2.07-4.521-4.521v-32.152c0-2.451,2.07-4.521,4.521-4.521h90.427C415.467,414.98,417.537,417.05,417.537,419.501z     M417.537,345.15v32.152c0,2.451-2.07,4.521-4.521,4.521h-90.427c-2.451,0-4.521-2.07-4.521-4.521V345.15    c0-2.451,2.07-4.521,4.521-4.521h90.427C415.467,340.629,417.537,342.699,417.537,345.15z M413.015,307.472h-90.427    c-2.45,0-4.521-2.07-4.521-4.521v-32.152c0-2.451,2.07-4.521,4.521-4.521h90.427c2.451,0,4.521,2.07,4.521,4.521v32.152    C417.536,305.402,415.466,307.472,413.015,307.472z" fill="#5c5c5c"/>
	</g>
</g>
<g>
</g>
<g>
</g>
<g>
</g>
<g>
</g>
<g>
</g>
<g>
</g>
<g>
</g>
<g>
</g>
<g>
</g>
<g>
</g>
<g>
</g>
<g>
</g>
<g>
</g>
<g>
</g>
<g>
</g>
</svg>
