<?xml version="1.0" encoding="iso-8859-1"?>
<!-- Generator: Adobe Illustrator 18.0.0, SVG Export Plug-In . SVG Version: 6.00 Build 0)  -->
<!DOCTYPE svg PUBLIC "-//W3C//DTD SVG 1.1//EN" "http://www.w3.org/Graphics/SVG/1.1/DTD/svg11.dtd">
<svg xmlns="http://www.w3.org/2000/svg" xmlns:xlink="http://www.w3.org/1999/xlink" version="1.1" id="Capa_1" x="0px" y="0px" viewBox="0 0 243.375 243.375" style="enable-background:new 0 0 243.375 243.375;" xml:space="preserve" width="20px" height="20px">
<g>
	<path d="M178.041,93.415H86.688V53c0-19.299,15.701-35,35-35s35,15.701,35,35c0,4.971,4.029,9,9,9s9-4.029,9-9   c0-29.225-23.775-53-53-53s-53,23.775-53,53v40.415h-3.354c-14.693,0-26.646,11.953-26.646,26.646v114.313c0,4.971,4.029,9,9,9h148   c4.971,0,9-4.029,9-9V120.062C204.688,105.368,192.734,93.415,178.041,93.415z M186.688,225.375h-130V120.062   c0-4.768,3.879-8.646,8.646-8.646h112.707c4.768,0,8.646,3.879,8.646,8.646V225.375z" fill="#333333"/>
	<path d="M121.688,164.18c-4.971,0-9,4.029-9,9v26.667c0,4.971,4.029,9,9,9s9-4.029,9-9V173.18   C130.688,168.209,126.658,164.18,121.688,164.18z" fill="#333333"/>
</g>
<g>
</g>
<g>
</g>
<g>
</g>
<g>
</g>
<g>
</g>
<g>
</g>
<g>
</g>
<g>
</g>
<g>
</g>
<g>
</g>
<g>
</g>
<g>
</g>
<g>
</g>
<g>
</g>
<g>
</g>
</svg>
